<svg xmlns="http://www.w3.org/2000/svg" width="800" height="520" viewBox="0 0 800 520">
  <defs>
    <linearGradient id="bg" x1="0" y1="0" x2="0" y2="1">
      <stop offset="0%" stop-color="#0f172a"/>
      <stop offset="100%" stop-color="#1e293b"/>
    </linearGradient>
    <linearGradient id="header" x1="0" y1="0" x2="1" y2="0">
      <stop offset="0%" stop-color="#1e293b"/>
      <stop offset="100%" stop-color="#0f172a"/>
    </linearGradient>
    <linearGradient id="card1" x1="0" y1="0" x2="1" y2="1">
      <stop offset="0%" stop-color="#1e293b"/>
      <stop offset="100%" stop-color="#0f172a"/>
    </linearGradient>
  </defs>
  <rect width="800" height="520" fill="url(#bg)" rx="8"/>

  <!-- Sidebar -->
  <rect x="0" y="0" width="180" height="520" fill="#0f172a" rx="8"/>
  <rect x="0" y="0" width="180" height="520" fill="#0f172a" opacity="0.5"/>
  <!-- Logo area -->
  <rect x="16" y="16" width="148" height="28" fill="#334155" rx="4"/>
  <rect x="16" y="16" width="28" height="28" fill="#863bff" rx="6"/>
  <text x="52" y="35" fill="#94a3b8" font-family="sans-serif" font-size="11" font-weight="bold">SHORTS FOR SORTS</text>
  <!-- Nav items -->
  <rect x="16" y="64" width="148" height="28" fill="#863bff" rx="6" opacity="0.15"/>
  <circle cx="28" cy="78" r="4" fill="#c084fc"/>
  <text x="40" y="82" fill="#c084fc" font-family="sans-serif" font-size="12">Batch</text>
  <circle cx="28" cy="114" r="4" fill="#475569"/>
  <text x="40" y="118" fill="#64748b" font-family="sans-serif" font-size="12">Media</text>
  <circle cx="28" cy="150" r="4" fill="#475569"/>
  <text x="40" y="154" fill="#64748b" font-family="sans-serif" font-size="12">Presets</text>
  <circle cx="28" cy="186" r="4" fill="#475569"/>
  <text x="40" y="190" fill="#64748b" font-family="sans-serif" font-size="12">Gallery</text>
  <circle cx="28" cy="222" r="4" fill="#475569"/>
  <text x="40" y="226" fill="#64748b" font-family="sans-serif" font-size="12">Settings</text>
  <circle cx="28" cy="258" r="4" fill="#475569"/>
  <text x="40" y="262" fill="#64748b" font-family="sans-serif" font-size="12">Analytics</text>

  <!-- Main content -->
  <!-- Batch header controls -->
  <rect x="196" y="16" width="588" height="44" fill="#1e293b" rx="8"/>
  <rect x="212" y="26" width="60" height="24" fill="#334155" rx="4"/>
  <text x="220" y="42" fill="#94a3b8" font-family="sans-serif" font-size="10">5 shorts</text>
  <rect x="280" y="26" width="80" height="24" fill="#334155" rx="4"/>
  <text x="288" y="42" fill="#94a3b8" font-family="sans-serif" font-size="10">All prompts</text>
  <rect x="680" y="22" width="88" height="32" fill="#863bff" rx="6"/>
  <text x="694" y="42" fill="#fff" font-family="sans-serif" font-size="11" font-weight="bold">Start Batch</text>

  <!-- Status bar -->
  <rect x="196" y="72" width="588" height="44" fill="#1e293b" rx="8"/>
  <circle cx="216" cy="94" r="5" fill="#3b82f6" opacity="0.8"/>
  <text x="230" y="98" fill="#94a3b8" font-family="sans-serif" font-size="11">Batch Running...</text>
  <rect x="340" y="84" width="60" height="20" fill="#166534" rx="4"/>
  <text x="348" y="98" fill="#4ade80" font-family="sans-serif" font-size="10">2 Done</text>
  <rect x="408" y="84" width="70" height="20" fill="#1e3a5f" rx="4"/>
  <text x="418" y="98" fill="#60a5fa" font-family="sans-serif" font-size="10">2 Running</text>
  <rect x="486" y="84" width="65" height="20" fill="#5c1a1a" rx="4"/>
  <text x="494" y="98" fill="#f87171" font-family="sans-serif" font-size="10">1 Failed</text>
  <rect x="630" y="84" width="80" height="20" fill="#3b1f6e" rx="4"/>
  <text x="638" y="98" fill="#c084fc" font-family="sans-serif" font-size="10">ETA: 1m 23s</text>
  <rect x="720" y="84" width="48" height="20" fill="#5c1a1a" rx="4"/>
  <text x="726" y="98" fill="#f87171" font-family="sans-serif" font-size="10">Cancel</text>

  <!-- Job cards grid -->
  <!-- Card 1 — Running -->
  <rect x="196" y="128" width="188" height="180" fill="#1e293b" rx="10"/>
  <rect x="340" y="140" width="32" height="18" fill="#3b1f6e" rx="4"/>
  <text x="344" y="153" fill="#c084fc" font-family="sans-serif" font-size="9">ETA: 45s</text>
  <text x="212" y="168" fill="#e2e8f0" font-family="sans-serif" font-size="13" font-weight="bold">Space facts that will</text>
  <text x="212" y="184" fill="#e2e8f0" font-family="sans-serif" font-size="13" font-weight="bold">blow your mind</text>
  <text x="212" y="200" fill="#64748b" font-family="sans-serif" font-size="10">af_bella • Full Screen • 😊 Emoji</text>
  <line x1="212" y1="215" x2="368" y2="215" stroke="#334155" stroke-width="1"/>
  <text x="212" y="234" fill="#60a5fa" font-family="sans-serif" font-size="11">Rendering video...</text>
  <text x="360" y="234" fill="#e2e8f0" font-family="sans-serif" font-size="11">68%</text>
  <!-- Progress bar segments -->
  <rect x="212" y="245" width="156" height="6" fill="#334155" rx="3"/>
  <rect x="212" y="245" width="20" fill="#22c55e" rx="3" height="6"/>
  <rect x="232" y="245" width="35" fill="#3b82f6" rx="0" height="6"/>
  <rect x="267" y="245" width="25" fill="#a855f7" rx="0" height="6"/>
  <rect x="292" y="245" width="35" fill="#f59e0b" rx="0" height="6"/>
  <clipPath id="bar1"><rect x="212" y="245" width="156" height="6" rx="3"/></clipPath>
  <rect clip-path="url(#bar1)" x="212" y="245" width="106" height="6" fill="url(#bar1)"/>

  <!-- Card 2 — Running -->
  <rect x="396" y="128" width="188" height="180" fill="#1e293b" rx="10"/>
  <text x="412" y="168" fill="#e2e8f0" font-family="sans-serif" font-size="13" font-weight="bold">Ocean mysteries</text>
  <text x="412" y="184" fill="#e2e8f0" font-family="sans-serif" font-size="13" font-weight="bold">science can't explain</text>
  <text x="412" y="200" fill="#64748b" font-family="sans-serif" font-size="10">af_nicole • Split • 😊 Emoji</text>
  <line x1="412" y1="215" x2="568" y2="215" stroke="#334155" stroke-width="1"/>
  <text x="412" y="234" fill="#60a5fa" font-family="sans-serif" font-size="11">Voice generation...</text>
  <text x="560" y="234" fill="#e2e8f0" font-family="sans-serif" font-size="11">42%</text>
  <rect x="412" y="245" width="156" height="6" fill="#334155" rx="3"/>
  <rect x="412" y="245" width="20" fill="#22c55e" rx="3" height="6"/>
  <rect x="432" y="245" width="35" fill="#3b82f6" rx="0" height="6"/>

  <!-- Card 3 — Failed -->
  <rect x="596" y="128" width="188" height="180" fill="#1e293b" rx="10"/>
  <text x="612" y="168" fill="#e2e8f0" font-family="sans-serif" font-size="13" font-weight="bold">Quick cooking</text>
  <text x="612" y="184" fill="#e2e8f0" font-family="sans-serif" font-size="13" font-weight="bold">hacks for beginners</text>
  <text x="612" y="200" fill="#64748b" font-family="sans-serif" font-size="10">af_bella • Full Screen • 🚫 No Emoji</text>
  <line x1="612" y1="215" x2="768" y2="215" stroke="#334155" stroke-width="1"/>
  <rect x="612" y="222" width="156" height="20" fill="#5c1a1a" rx="4"/>
  <text x="616" y="236" fill="#f87171" font-family="sans-serif" font-size="10">✕ Top background video not found</text>
  <rect x="706" y="222" width="62" height="20" fill="#78350f" rx="4"/>
  <text x="712" y="236" fill="#fbbf24" font-family="sans-serif" font-size="9">↻ Retry</text>

  <!-- Card 4 — Done -->
  <rect x="196" y="320" width="188" height="180" fill="#1e293b" rx="10"/>
  <text x="212" y="360" fill="#e2e8f0" font-family="sans-serif" font-size="13" font-weight="bold">Mind-blowing AI</text>
  <text x="212" y="376" fill="#e2e8f0" font-family="sans-serif" font-size="13" font-weight="bold">developments in 2026</text>
  <text x="212" y="392" fill="#64748b" font-family="sans-serif" font-size="10">af_nicole • Full Screen • 😊 Emoji</text>
  <line x1="212" y1="407" x2="368" y2="407" stroke="#334155" stroke-width="1"/>
  <rect x="212" y="416" width="80" height="20" fill="#166534" rx="4"/>
  <text x="220" y="430" fill="#4ade80" font-family="sans-serif" font-size="10">✓ Completed</text>

  <!-- Card 5 — Done -->
  <rect x="396" y="320" width="188" height="180" fill="#1e293b" rx="10"/>
  <text x="412" y="360" fill="#e2e8f0" font-family="sans-serif" font-size="13" font-weight="bold">History's greatest</text>
  <text x="412" y="376" fill="#e2e8f0" font-family="sans-serif" font-size="13" font-weight="bold">coincidences</text>
  <text x="412" y="392" fill="#64748b" font-family="sans-serif" font-size="10">af_bella • Split • 😊 Emoji</text>
  <line x1="412" y1="407" x2="568" y2="407" stroke="#334155" stroke-width="1"/>
  <rect x="412" y="416" width="80" height="20" fill="#166534" rx="4"/>
  <text x="420" y="430" fill="#4ade80" font-family="sans-serif" font-size="10">✓ Completed</text>
</svg>
